<mxfile host="app.diagrams.net" agent="Mozilla/5.0 (Windows NT 10.0; Win64; x64) AppleWebKit/537.36 (KHTML, like Gecko) Chrome/138.0.0.0 Safari/537.36" version="28.0.6">
  <diagram name="หน้า-1" id="Sb9Qko_NTx9gJ0KkiB_f">
    <mxGraphModel dx="1426" dy="743" grid="1" gridSize="10" guides="1" tooltips="1" connect="1" arrows="1" fold="1" page="1" pageScale="1" pageWidth="827" pageHeight="1169" math="0" shadow="0">
      <root>
        <mxCell id="0" />
        <mxCell id="1" parent="0" />
        <mxCell id="7FRll6Lz1_2TQ6KTnF0Q-1" value="ทบทวนสัญลักษณ์" style="swimlane;fontFamily=Sarabun;fontSource=https%3A%2F%2Ffonts.googleapis.com%2Fcss%3Ffamily%3DSarabun;" vertex="1" parent="1">
          <mxGeometry x="134" y="20" width="640" height="290" as="geometry" />
        </mxCell>
        <mxCell id="7FRll6Lz1_2TQ6KTnF0Q-2" value="&lt;font data-font-src=&quot;https://fonts.googleapis.com/css?family=Sarabun&quot; face=&quot;Sarabun&quot;&gt;เริ่มต้น&lt;/font&gt;" style="ellipse;whiteSpace=wrap;html=1;" vertex="1" parent="7FRll6Lz1_2TQ6KTnF0Q-1">
          <mxGeometry x="20" y="40" width="130" height="30" as="geometry" />
        </mxCell>
        <mxCell id="7FRll6Lz1_2TQ6KTnF0Q-3" value="" style="endArrow=classic;html=1;rounded=0;" edge="1" parent="7FRll6Lz1_2TQ6KTnF0Q-1">
          <mxGeometry width="50" height="50" relative="1" as="geometry">
            <mxPoint x="84.5" y="70" as="sourcePoint" />
            <mxPoint x="84.5" y="120" as="targetPoint" />
          </mxGeometry>
        </mxCell>
        <mxCell id="7FRll6Lz1_2TQ6KTnF0Q-4" value="&lt;font face=&quot;Sarabun&quot;&gt;สิ้นสุด&lt;/font&gt;" style="ellipse;whiteSpace=wrap;html=1;" vertex="1" parent="7FRll6Lz1_2TQ6KTnF0Q-1">
          <mxGeometry x="150" y="90" width="130" height="30" as="geometry" />
        </mxCell>
        <mxCell id="7FRll6Lz1_2TQ6KTnF0Q-5" value="" style="endArrow=classic;html=1;rounded=0;" edge="1" parent="7FRll6Lz1_2TQ6KTnF0Q-1">
          <mxGeometry width="50" height="50" relative="1" as="geometry">
            <mxPoint x="214.5" y="40" as="sourcePoint" />
            <mxPoint x="214.5" y="90" as="targetPoint" />
          </mxGeometry>
        </mxCell>
        <mxCell id="7FRll6Lz1_2TQ6KTnF0Q-6" value="กระบวนการ" style="rounded=0;whiteSpace=wrap;html=1;fontFamily=Sarabun;fontSource=https%3A%2F%2Ffonts.googleapis.com%2Fcss%3Ffamily%3DSarabun;" vertex="1" parent="7FRll6Lz1_2TQ6KTnF0Q-1">
          <mxGeometry x="320" y="70" width="120" height="30" as="geometry" />
        </mxCell>
        <mxCell id="7FRll6Lz1_2TQ6KTnF0Q-7" value="" style="endArrow=classic;html=1;rounded=0;" edge="1" parent="7FRll6Lz1_2TQ6KTnF0Q-1">
          <mxGeometry width="50" height="50" relative="1" as="geometry">
            <mxPoint x="379" y="40" as="sourcePoint" />
            <mxPoint x="379.5" y="70" as="targetPoint" />
          </mxGeometry>
        </mxCell>
        <mxCell id="7FRll6Lz1_2TQ6KTnF0Q-8" value="" style="endArrow=classic;html=1;rounded=0;" edge="1" parent="7FRll6Lz1_2TQ6KTnF0Q-1">
          <mxGeometry width="50" height="50" relative="1" as="geometry">
            <mxPoint x="379.75" y="100" as="sourcePoint" />
            <mxPoint x="380.25" y="130" as="targetPoint" />
          </mxGeometry>
        </mxCell>
        <mxCell id="7FRll6Lz1_2TQ6KTnF0Q-9" value="ประโยคเงื่อนไข" style="rhombus;whiteSpace=wrap;html=1;fontFamily=Sarabun;fontSource=https%3A%2F%2Ffonts.googleapis.com%2Fcss%3Ffamily%3DSarabun;" vertex="1" parent="7FRll6Lz1_2TQ6KTnF0Q-1">
          <mxGeometry x="490" y="60" width="100" height="60" as="geometry" />
        </mxCell>
        <mxCell id="7FRll6Lz1_2TQ6KTnF0Q-10" value="" style="endArrow=classic;html=1;rounded=0;" edge="1" parent="7FRll6Lz1_2TQ6KTnF0Q-1">
          <mxGeometry width="50" height="50" relative="1" as="geometry">
            <mxPoint x="539.71" y="30" as="sourcePoint" />
            <mxPoint x="540.21" y="60" as="targetPoint" />
          </mxGeometry>
        </mxCell>
        <mxCell id="7FRll6Lz1_2TQ6KTnF0Q-11" value="" style="endArrow=classic;html=1;rounded=0;" edge="1" parent="7FRll6Lz1_2TQ6KTnF0Q-1">
          <mxGeometry width="50" height="50" relative="1" as="geometry">
            <mxPoint x="539.71" y="120" as="sourcePoint" />
            <mxPoint x="540" y="175" as="targetPoint" />
          </mxGeometry>
        </mxCell>
        <mxCell id="7FRll6Lz1_2TQ6KTnF0Q-12" value="จริง" style="edgeLabel;html=1;align=center;verticalAlign=middle;resizable=0;points=[];fontFamily=Sarabun;fontSource=https%3A%2F%2Ffonts.googleapis.com%2Fcss%3Ffamily%3DSarabun;" vertex="1" connectable="0" parent="7FRll6Lz1_2TQ6KTnF0Q-11">
          <mxGeometry x="-0.4142" y="-1" relative="1" as="geometry">
            <mxPoint as="offset" />
          </mxGeometry>
        </mxCell>
        <mxCell id="7FRll6Lz1_2TQ6KTnF0Q-13" value="" style="endArrow=classic;html=1;rounded=0;exitX=1;exitY=0.5;exitDx=0;exitDy=0;" edge="1" parent="7FRll6Lz1_2TQ6KTnF0Q-1" source="7FRll6Lz1_2TQ6KTnF0Q-9">
          <mxGeometry width="50" height="50" relative="1" as="geometry">
            <mxPoint x="620" y="95" as="sourcePoint" />
            <mxPoint x="610" y="175" as="targetPoint" />
            <Array as="points">
              <mxPoint x="610" y="90" />
            </Array>
          </mxGeometry>
        </mxCell>
        <mxCell id="7FRll6Lz1_2TQ6KTnF0Q-14" value="&lt;font data-font-src=&quot;https://fonts.googleapis.com/css?family=Sarabun&quot; face=&quot;Sarabun&quot;&gt;เท็จ&lt;/font&gt;" style="edgeLabel;html=1;align=center;verticalAlign=middle;resizable=0;points=[];" vertex="1" connectable="0" parent="7FRll6Lz1_2TQ6KTnF0Q-13">
          <mxGeometry x="-0.0019" y="-2" relative="1" as="geometry">
            <mxPoint as="offset" />
          </mxGeometry>
        </mxCell>
        <mxCell id="7FRll6Lz1_2TQ6KTnF0Q-15" value="&lt;font data-font-src=&quot;https://fonts.googleapis.com/css?family=Sarabun&quot; face=&quot;Sarabun&quot;&gt;ฟังก์ชัน/โมดูล&lt;/font&gt;" style="shape=process;whiteSpace=wrap;html=1;backgroundOutline=1;" vertex="1" parent="7FRll6Lz1_2TQ6KTnF0Q-1">
          <mxGeometry x="25" y="180" width="120" height="30" as="geometry" />
        </mxCell>
        <mxCell id="7FRll6Lz1_2TQ6KTnF0Q-16" value="" style="endArrow=classic;html=1;rounded=0;" edge="1" parent="7FRll6Lz1_2TQ6KTnF0Q-1">
          <mxGeometry width="50" height="50" relative="1" as="geometry">
            <mxPoint x="84.70999999999998" y="150" as="sourcePoint" />
            <mxPoint x="85.20999999999998" y="180" as="targetPoint" />
          </mxGeometry>
        </mxCell>
        <mxCell id="7FRll6Lz1_2TQ6KTnF0Q-17" value="" style="endArrow=classic;html=1;rounded=0;" edge="1" parent="7FRll6Lz1_2TQ6KTnF0Q-1">
          <mxGeometry width="50" height="50" relative="1" as="geometry">
            <mxPoint x="84.70999999999998" y="210" as="sourcePoint" />
            <mxPoint x="85.20999999999998" y="240" as="targetPoint" />
          </mxGeometry>
        </mxCell>
        <mxCell id="7FRll6Lz1_2TQ6KTnF0Q-18" value="" style="strokeWidth=2;html=1;shape=mxgraph.flowchart.start_2;whiteSpace=wrap;" vertex="1" parent="7FRll6Lz1_2TQ6KTnF0Q-1">
          <mxGeometry x="205" y="185" width="20" height="20" as="geometry" />
        </mxCell>
        <mxCell id="7FRll6Lz1_2TQ6KTnF0Q-19" value="" style="endArrow=classic;html=1;rounded=0;" edge="1" parent="7FRll6Lz1_2TQ6KTnF0Q-1">
          <mxGeometry width="50" height="50" relative="1" as="geometry">
            <mxPoint x="214.70999999999998" y="155" as="sourcePoint" />
            <mxPoint x="215.20999999999998" y="185" as="targetPoint" />
          </mxGeometry>
        </mxCell>
        <mxCell id="7FRll6Lz1_2TQ6KTnF0Q-20" value="" style="endArrow=classic;html=1;rounded=0;entryX=0;entryY=0.5;entryDx=0;entryDy=0;entryPerimeter=0;" edge="1" parent="7FRll6Lz1_2TQ6KTnF0Q-1" target="7FRll6Lz1_2TQ6KTnF0Q-18">
          <mxGeometry width="50" height="50" relative="1" as="geometry">
            <mxPoint x="189.99999999999997" y="155" as="sourcePoint" />
            <mxPoint x="190.49999999999997" y="185" as="targetPoint" />
            <Array as="points">
              <mxPoint x="190" y="180" />
            </Array>
          </mxGeometry>
        </mxCell>
        <mxCell id="7FRll6Lz1_2TQ6KTnF0Q-21" value="" style="endArrow=classic;html=1;rounded=0;entryX=1;entryY=0.5;entryDx=0;entryDy=0;entryPerimeter=0;" edge="1" parent="7FRll6Lz1_2TQ6KTnF0Q-1" target="7FRll6Lz1_2TQ6KTnF0Q-18">
          <mxGeometry width="50" height="50" relative="1" as="geometry">
            <mxPoint x="239.99999999999997" y="155" as="sourcePoint" />
            <mxPoint x="240.49999999999997" y="185" as="targetPoint" />
            <Array as="points">
              <mxPoint x="240" y="180" />
            </Array>
          </mxGeometry>
        </mxCell>
        <mxCell id="7FRll6Lz1_2TQ6KTnF0Q-22" value="" style="endArrow=classic;html=1;rounded=0;" edge="1" parent="7FRll6Lz1_2TQ6KTnF0Q-1">
          <mxGeometry width="50" height="50" relative="1" as="geometry">
            <mxPoint x="214.70999999999998" y="205" as="sourcePoint" />
            <mxPoint x="215.20999999999998" y="235" as="targetPoint" />
          </mxGeometry>
        </mxCell>
        <mxCell id="7FRll6Lz1_2TQ6KTnF0Q-23" value="&lt;font data-font-src=&quot;https://fonts.googleapis.com/css?family=Sarabun&quot; face=&quot;Sarabun&quot;&gt;ตัวเชื่อม&lt;/font&gt;" style="text;html=1;align=center;verticalAlign=middle;resizable=0;points=[];autosize=1;strokeColor=none;fillColor=none;" vertex="1" parent="7FRll6Lz1_2TQ6KTnF0Q-1">
          <mxGeometry x="220" y="190" width="60" height="30" as="geometry" />
        </mxCell>
        <mxCell id="7FRll6Lz1_2TQ6KTnF0Q-24" value="" style="endArrow=classic;html=1;rounded=0;" edge="1" parent="7FRll6Lz1_2TQ6KTnF0Q-1">
          <mxGeometry width="50" height="50" relative="1" as="geometry">
            <mxPoint x="353.71" y="165" as="sourcePoint" />
            <mxPoint x="354.21" y="195" as="targetPoint" />
          </mxGeometry>
        </mxCell>
        <mxCell id="7FRll6Lz1_2TQ6KTnF0Q-25" value="" style="verticalLabelPosition=bottom;verticalAlign=top;html=1;shape=offPageConnector;rounded=0;size=0.5;" vertex="1" parent="7FRll6Lz1_2TQ6KTnF0Q-1">
          <mxGeometry x="339" y="195" width="30" height="30" as="geometry" />
        </mxCell>
        <mxCell id="7FRll6Lz1_2TQ6KTnF0Q-26" value="" style="endArrow=classic;html=1;rounded=0;" edge="1" parent="7FRll6Lz1_2TQ6KTnF0Q-1">
          <mxGeometry width="50" height="50" relative="1" as="geometry">
            <mxPoint x="405.71" y="195" as="sourcePoint" />
            <mxPoint x="406.21" y="225" as="targetPoint" />
          </mxGeometry>
        </mxCell>
        <mxCell id="7FRll6Lz1_2TQ6KTnF0Q-27" value="" style="verticalLabelPosition=bottom;verticalAlign=top;html=1;shape=offPageConnector;rounded=0;size=0.5;" vertex="1" parent="7FRll6Lz1_2TQ6KTnF0Q-1">
          <mxGeometry x="391" y="165" width="30" height="30" as="geometry" />
        </mxCell>
        <mxCell id="7FRll6Lz1_2TQ6KTnF0Q-28" value="หน้าต่อไป" style="text;html=1;align=center;verticalAlign=middle;resizable=0;points=[];autosize=1;strokeColor=none;fillColor=none;fontFamily=Sarabun;fontSource=https%3A%2F%2Ffonts.googleapis.com%2Fcss%3Ffamily%3DSarabun;" vertex="1" parent="7FRll6Lz1_2TQ6KTnF0Q-1">
          <mxGeometry x="345" y="220" width="70" height="30" as="geometry" />
        </mxCell>
        <mxCell id="7FRll6Lz1_2TQ6KTnF0Q-29" value="ก" style="text;html=1;align=center;verticalAlign=middle;resizable=0;points=[];autosize=1;strokeColor=none;fillColor=none;fontFamily=Sarabun;fontSource=https%3A%2F%2Ffonts.googleapis.com%2Fcss%3Ffamily%3DSarabun;" vertex="1" parent="7FRll6Lz1_2TQ6KTnF0Q-1">
          <mxGeometry x="339" y="190" width="30" height="30" as="geometry" />
        </mxCell>
        <mxCell id="7FRll6Lz1_2TQ6KTnF0Q-30" value="ก" style="text;html=1;align=center;verticalAlign=middle;resizable=0;points=[];autosize=1;strokeColor=none;fillColor=none;fontFamily=Sarabun;fontSource=https%3A%2F%2Ffonts.googleapis.com%2Fcss%3Ffamily%3DSarabun;" vertex="1" parent="7FRll6Lz1_2TQ6KTnF0Q-1">
          <mxGeometry x="391" y="160" width="30" height="30" as="geometry" />
        </mxCell>
        <mxCell id="7FRll6Lz1_2TQ6KTnF0Q-31" value="แสดงผล/รับค่า" style="shape=parallelogram;perimeter=parallelogramPerimeter;whiteSpace=wrap;html=1;fixedSize=1;fontFamily=Sarabun;fontSource=https%3A%2F%2Ffonts.googleapis.com%2Fcss%3Ffamily%3DSarabun;" vertex="1" parent="7FRll6Lz1_2TQ6KTnF0Q-1">
          <mxGeometry x="450" y="210" width="120" height="30" as="geometry" />
        </mxCell>
        <mxCell id="7FRll6Lz1_2TQ6KTnF0Q-32" value="" style="endArrow=classic;html=1;rounded=0;" edge="1" parent="7FRll6Lz1_2TQ6KTnF0Q-1">
          <mxGeometry width="50" height="50" relative="1" as="geometry">
            <mxPoint x="509.71" y="180" as="sourcePoint" />
            <mxPoint x="510.21" y="210" as="targetPoint" />
          </mxGeometry>
        </mxCell>
        <mxCell id="7FRll6Lz1_2TQ6KTnF0Q-33" value="" style="endArrow=classic;html=1;rounded=0;" edge="1" parent="7FRll6Lz1_2TQ6KTnF0Q-1">
          <mxGeometry width="50" height="50" relative="1" as="geometry">
            <mxPoint x="509.71" y="240" as="sourcePoint" />
            <mxPoint x="510.21" y="270" as="targetPoint" />
          </mxGeometry>
        </mxCell>
        <mxCell id="7FRll6Lz1_2TQ6KTnF0Q-34" value="แก้ไขโจทย์ปัญหา" style="swimlane;fontFamily=Sarabun;fontSource=https%3A%2F%2Ffonts.googleapis.com%2Fcss%3Ffamily%3DSarabun;" vertex="1" parent="1">
          <mxGeometry x="134" y="670" width="640" height="3200" as="geometry" />
        </mxCell>
        <mxCell id="7FRll6Lz1_2TQ6KTnF0Q-35" value="&lt;font data-font-src=&quot;https://fonts.googleapis.com/css?family=Sarabun&quot; face=&quot;Sarabun&quot;&gt;เริ่มต้น&lt;/font&gt;" style="ellipse;whiteSpace=wrap;html=1;" vertex="1" parent="7FRll6Lz1_2TQ6KTnF0Q-34">
          <mxGeometry x="255" y="40" width="130" height="30" as="geometry" />
        </mxCell>
        <mxCell id="7FRll6Lz1_2TQ6KTnF0Q-36" value="&lt;font face=&quot;Sarabun&quot;&gt;สิ้นสุด&lt;/font&gt;" style="ellipse;whiteSpace=wrap;html=1;" vertex="1" parent="7FRll6Lz1_2TQ6KTnF0Q-34">
          <mxGeometry x="255" y="3120" width="130" height="30" as="geometry" />
        </mxCell>
        <mxCell id="7FRll6Lz1_2TQ6KTnF0Q-37" value="" style="endArrow=classic;html=1;rounded=0;" edge="1" parent="7FRll6Lz1_2TQ6KTnF0Q-34">
          <mxGeometry width="50" height="50" relative="1" as="geometry">
            <mxPoint x="319.5" y="70" as="sourcePoint" />
            <mxPoint x="319.5" y="110" as="targetPoint" />
          </mxGeometry>
        </mxCell>
        <mxCell id="7FRll6Lz1_2TQ6KTnF0Q-38" value="&lt;span style=&quot;font-family: Sarabun; font-size: 14px; text-wrap-mode: nowrap;&quot;&gt;&amp;nbsp; &amp;nbsp; &amp;nbsp; &amp;nbsp; &amp;nbsp; ประเภทน้ำ&lt;span style=&quot;white-space-collapse: preserve;&quot;&gt;&#x9;&lt;/span&gt;&lt;span style=&quot;white-space-collapse: preserve;&quot;&gt;&#x9;&lt;/span&gt;&lt;span style=&quot;white-space-collapse: preserve;&quot;&gt;&#x9;&lt;/span&gt;&lt;span style=&quot;white-space-collapse: preserve;&quot;&gt;&#x9;&lt;/span&gt;&lt;span style=&quot;white-space-collapse: preserve;&quot;&gt;&#x9;&lt;/span&gt;&lt;span style=&quot;white-space-collapse: preserve;&quot;&gt;&#x9;&lt;span style=&quot;white-space-collapse: preserve;&quot;&gt;&#x9;&lt;/span&gt;ข&lt;/span&gt;นม&lt;/span&gt;&lt;br style=&quot;font-family: Sarabun; font-size: 14px; text-wrap-mode: nowrap;&quot;&gt;&lt;span style=&quot;font-family: Sarabun; font-size: 14px; white-space: pre;&quot;&gt;&#x9;&lt;/span&gt;&lt;span style=&quot;font-family: Sarabun; font-size: 14px; text-wrap-mode: nowrap;&quot;&gt;- โค้ก&amp;nbsp;&lt;/span&gt;&lt;span style=&quot;font-family: Sarabun; font-size: 14px; text-wrap-mode: nowrap;&quot;&gt;กระป๋องละ 10 บาท&lt;/span&gt;&lt;span style=&quot;font-family: Sarabun; font-size: 14px; white-space: pre;&quot;&gt;&#x9;&lt;/span&gt;&lt;span style=&quot;font-family: Sarabun; font-size: 14px; white-space: pre;&quot;&gt;&#x9;&lt;/span&gt;&lt;span style=&quot;font-family: Sarabun; font-size: 14px; text-wrap-mode: nowrap;&quot;&gt;- เมล็ดทานตะวัน 13 บาท&lt;/span&gt;&lt;br style=&quot;font-family: Sarabun; font-size: 14px; text-wrap-mode: nowrap;&quot;&gt;&lt;span style=&quot;font-family: Sarabun; font-size: 14px; white-space: pre;&quot;&gt;&#x9;&lt;/span&gt;&lt;span style=&quot;font-family: Sarabun; font-size: 14px; text-wrap-mode: nowrap;&quot;&gt;- น้ำเขียว&amp;nbsp;&lt;/span&gt;&lt;span style=&quot;font-family: Sarabun; font-size: 14px; text-wrap-mode: nowrap;&quot;&gt;&amp;nbsp;กระป๋องละ 12 บาท&lt;/span&gt;&lt;span style=&quot;font-family: Sarabun; font-size: 14px; white-space: pre;&quot;&gt;&#x9;&lt;/span&gt;&lt;span style=&quot;font-family: Sarabun; font-size: 14px; text-wrap-mode: nowrap;&quot;&gt;- ถั่วแปบ 20 บาท&lt;/span&gt;&lt;br style=&quot;font-family: Sarabun; font-size: 14px; text-wrap-mode: nowrap;&quot;&gt;&lt;span style=&quot;font-family: Sarabun; font-size: 14px; white-space: pre;&quot;&gt;&#x9;&lt;/span&gt;&lt;span style=&quot;font-family: Sarabun; font-size: 14px; text-wrap-mode: nowrap;&quot;&gt;- อเมริกาโน่&amp;nbsp;&lt;/span&gt;&lt;span style=&quot;font-family: Sarabun; font-size: 14px; text-wrap-mode: nowrap;&quot;&gt;30 บาท&lt;/span&gt;&lt;span style=&quot;font-family: Sarabun; font-size: 14px; white-space: pre;&quot;&gt;&#x9;&lt;/span&gt;&lt;span style=&quot;font-family: Sarabun; font-size: 14px; white-space: pre;&quot;&gt;&#x9;&lt;/span&gt;&lt;span style=&quot;font-family: Sarabun; font-size: 14px; white-space: pre;&quot;&gt;&#x9;&lt;/span&gt;&lt;span style=&quot;font-family: Sarabun; font-size: 14px; text-wrap-mode: nowrap;&quot;&gt;- จิ้นส้มหมก 15 บาท&lt;/span&gt;&lt;br style=&quot;font-family: Sarabun; font-size: 14px; text-wrap-mode: nowrap;&quot;&gt;&lt;span style=&quot;font-family: Sarabun; font-size: 14px; white-space: pre;&quot;&gt;&#x9;&lt;/span&gt;&lt;span style=&quot;font-family: Sarabun; font-size: 14px; text-wrap-mode: nowrap;&quot;&gt;- ลาเต้ หวานเจี๊ยบ&amp;nbsp;&lt;/span&gt;&lt;span style=&quot;font-family: Sarabun; font-size: 14px; text-wrap-mode: nowrap;&quot;&gt;35 บาท&lt;/span&gt;" style="shape=parallelogram;perimeter=parallelogramPerimeter;whiteSpace=wrap;html=1;fixedSize=1;align=left;" vertex="1" parent="7FRll6Lz1_2TQ6KTnF0Q-34">
          <mxGeometry x="100" y="110" width="451.25" height="180" as="geometry" />
        </mxCell>
        <mxCell id="7FRll6Lz1_2TQ6KTnF0Q-39" value="" style="endArrow=classic;html=1;rounded=0;" edge="1" parent="7FRll6Lz1_2TQ6KTnF0Q-34">
          <mxGeometry width="50" height="50" relative="1" as="geometry">
            <mxPoint x="319.5" y="290" as="sourcePoint" />
            <mxPoint x="319.5" y="330" as="targetPoint" />
          </mxGeometry>
        </mxCell>
        <mxCell id="7FRll6Lz1_2TQ6KTnF0Q-40" value="กำหนดจำนวนของเครื่องดื่ม&lt;div&gt;-โค๊ก จำนวน 20 ชิ้น&lt;/div&gt;&lt;div&gt;-น้ำเขียว จำนวน 20 ชิ้น&lt;/div&gt;&lt;div&gt;-อเมริกาโน่ จำนวน 20 ชิ้น&lt;/div&gt;&lt;div&gt;-ลาเต้ หวานเจี๊ยบ จำนวน 20 ชิ้น&lt;/div&gt;" style="rounded=0;whiteSpace=wrap;html=1;" vertex="1" parent="7FRll6Lz1_2TQ6KTnF0Q-34">
          <mxGeometry x="195" y="330" width="250" height="140" as="geometry" />
        </mxCell>
        <mxCell id="7FRll6Lz1_2TQ6KTnF0Q-41" value="" style="endArrow=classic;html=1;rounded=0;" edge="1" parent="7FRll6Lz1_2TQ6KTnF0Q-34">
          <mxGeometry width="50" height="50" relative="1" as="geometry">
            <mxPoint x="299.34" y="475" as="sourcePoint" />
            <mxPoint x="299.84" y="505" as="targetPoint" />
          </mxGeometry>
        </mxCell>
        <mxCell id="7FRll6Lz1_2TQ6KTnF0Q-42" value="" style="verticalLabelPosition=bottom;verticalAlign=top;html=1;shape=offPageConnector;rounded=0;size=0.5;" vertex="1" parent="7FRll6Lz1_2TQ6KTnF0Q-34">
          <mxGeometry x="284.63" y="505" width="30" height="30" as="geometry" />
        </mxCell>
        <mxCell id="7FRll6Lz1_2TQ6KTnF0Q-43" value="" style="endArrow=classic;html=1;rounded=0;" edge="1" parent="7FRll6Lz1_2TQ6KTnF0Q-34">
          <mxGeometry width="50" height="50" relative="1" as="geometry">
            <mxPoint x="351.34" y="505" as="sourcePoint" />
            <mxPoint x="351.84" y="535" as="targetPoint" />
          </mxGeometry>
        </mxCell>
        <mxCell id="7FRll6Lz1_2TQ6KTnF0Q-44" value="" style="verticalLabelPosition=bottom;verticalAlign=top;html=1;shape=offPageConnector;rounded=0;size=0.5;" vertex="1" parent="7FRll6Lz1_2TQ6KTnF0Q-34">
          <mxGeometry x="336.63" y="475" width="30" height="30" as="geometry" />
        </mxCell>
        <mxCell id="7FRll6Lz1_2TQ6KTnF0Q-45" value="ก" style="text;html=1;align=center;verticalAlign=middle;resizable=0;points=[];autosize=1;strokeColor=none;fillColor=none;fontFamily=Sarabun;fontSource=https%3A%2F%2Ffonts.googleapis.com%2Fcss%3Ffamily%3DSarabun;" vertex="1" parent="7FRll6Lz1_2TQ6KTnF0Q-34">
          <mxGeometry x="284.63" y="500" width="30" height="30" as="geometry" />
        </mxCell>
        <mxCell id="7FRll6Lz1_2TQ6KTnF0Q-46" value="ก" style="text;html=1;align=center;verticalAlign=middle;resizable=0;points=[];autosize=1;strokeColor=none;fillColor=none;fontFamily=Sarabun;fontSource=https%3A%2F%2Ffonts.googleapis.com%2Fcss%3Ffamily%3DSarabun;" vertex="1" parent="7FRll6Lz1_2TQ6KTnF0Q-34">
          <mxGeometry x="336.63" y="470" width="30" height="30" as="geometry" />
        </mxCell>
        <mxCell id="7FRll6Lz1_2TQ6KTnF0Q-47" value="กำหนดจำนวนของขนม&lt;div&gt;-เมล็ดทานตะวัน จำนวน 20 ชิ้น&lt;/div&gt;&lt;div&gt;-ถั่วแปป จำนวน 20 ชิ้น&lt;/div&gt;&lt;div&gt;-จิ้นส้มหมก จำนวน 20 ชิ้น&lt;/div&gt;&lt;div&gt;&lt;br&gt;&lt;/div&gt;" style="rounded=0;whiteSpace=wrap;html=1;" vertex="1" parent="7FRll6Lz1_2TQ6KTnF0Q-34">
          <mxGeometry x="200.63" y="540" width="250" height="140" as="geometry" />
        </mxCell>
        <mxCell id="7FRll6Lz1_2TQ6KTnF0Q-48" value="" style="endArrow=classic;html=1;rounded=0;" edge="1" parent="7FRll6Lz1_2TQ6KTnF0Q-34">
          <mxGeometry width="50" height="50" relative="1" as="geometry">
            <mxPoint x="319.5" y="680" as="sourcePoint" />
            <mxPoint x="319.5" y="720" as="targetPoint" />
          </mxGeometry>
        </mxCell>
        <mxCell id="7FRll6Lz1_2TQ6KTnF0Q-49" value="เลือกสินค้า" style="shape=parallelogram;perimeter=parallelogramPerimeter;whiteSpace=wrap;html=1;fixedSize=1;" vertex="1" parent="7FRll6Lz1_2TQ6KTnF0Q-34">
          <mxGeometry x="260" y="720" width="120" height="60" as="geometry" />
        </mxCell>
        <mxCell id="7FRll6Lz1_2TQ6KTnF0Q-50" value="" style="endArrow=classic;html=1;rounded=0;" edge="1" parent="7FRll6Lz1_2TQ6KTnF0Q-34">
          <mxGeometry width="50" height="50" relative="1" as="geometry">
            <mxPoint x="319.5" y="780" as="sourcePoint" />
            <mxPoint x="319.5" y="820" as="targetPoint" />
          </mxGeometry>
        </mxCell>
        <mxCell id="7FRll6Lz1_2TQ6KTnF0Q-51" value="เก็บข้อมูลสินค้าที่เลือก" style="rounded=0;whiteSpace=wrap;html=1;" vertex="1" parent="7FRll6Lz1_2TQ6KTnF0Q-34">
          <mxGeometry x="260" y="820" width="120" height="60" as="geometry" />
        </mxCell>
        <mxCell id="7FRll6Lz1_2TQ6KTnF0Q-52" value="" style="endArrow=classic;html=1;rounded=0;" edge="1" parent="7FRll6Lz1_2TQ6KTnF0Q-34">
          <mxGeometry width="50" height="50" relative="1" as="geometry">
            <mxPoint x="319.5" y="880" as="sourcePoint" />
            <mxPoint x="319.5" y="920" as="targetPoint" />
          </mxGeometry>
        </mxCell>
        <mxCell id="7FRll6Lz1_2TQ6KTnF0Q-53" value="สินค้าเหลือหรือไม่?" style="rhombus;whiteSpace=wrap;html=1;" vertex="1" parent="7FRll6Lz1_2TQ6KTnF0Q-34">
          <mxGeometry x="255" y="920" width="130" height="110" as="geometry" />
        </mxCell>
        <mxCell id="7FRll6Lz1_2TQ6KTnF0Q-54" value="" style="endArrow=classic;html=1;rounded=0;" edge="1" parent="7FRll6Lz1_2TQ6KTnF0Q-34">
          <mxGeometry width="50" height="50" relative="1" as="geometry">
            <mxPoint x="319.5" y="1030" as="sourcePoint" />
            <mxPoint x="319.5" y="1070" as="targetPoint" />
          </mxGeometry>
        </mxCell>
        <mxCell id="7FRll6Lz1_2TQ6KTnF0Q-55" value="เท็จ" style="edgeLabel;html=1;align=center;verticalAlign=middle;resizable=0;points=[];" vertex="1" connectable="0" parent="7FRll6Lz1_2TQ6KTnF0Q-54">
          <mxGeometry x="-0.25" y="1" relative="1" as="geometry">
            <mxPoint as="offset" />
          </mxGeometry>
        </mxCell>
        <mxCell id="7FRll6Lz1_2TQ6KTnF0Q-56" value="สินค้าหมด" style="shape=parallelogram;perimeter=parallelogramPerimeter;whiteSpace=wrap;html=1;fixedSize=1;" vertex="1" parent="7FRll6Lz1_2TQ6KTnF0Q-34">
          <mxGeometry x="260" y="1070" width="120" height="60" as="geometry" />
        </mxCell>
        <mxCell id="7FRll6Lz1_2TQ6KTnF0Q-57" value="" style="endArrow=classic;html=1;rounded=0;" edge="1" parent="7FRll6Lz1_2TQ6KTnF0Q-34">
          <mxGeometry width="50" height="50" relative="1" as="geometry">
            <mxPoint x="319.5" y="1130" as="sourcePoint" />
            <mxPoint x="319.5" y="1170" as="targetPoint" />
          </mxGeometry>
        </mxCell>
        <mxCell id="7FRll6Lz1_2TQ6KTnF0Q-58" value="นำสินค้าออกจากรายการ" style="rounded=0;whiteSpace=wrap;html=1;" vertex="1" parent="7FRll6Lz1_2TQ6KTnF0Q-34">
          <mxGeometry x="260" y="1170" width="120" height="60" as="geometry" />
        </mxCell>
        <mxCell id="7FRll6Lz1_2TQ6KTnF0Q-59" value="" style="endArrow=classic;html=1;rounded=0;" edge="1" parent="7FRll6Lz1_2TQ6KTnF0Q-34">
          <mxGeometry width="50" height="50" relative="1" as="geometry">
            <mxPoint x="319.5" y="1230" as="sourcePoint" />
            <mxPoint x="319.5" y="1270" as="targetPoint" />
          </mxGeometry>
        </mxCell>
        <mxCell id="7FRll6Lz1_2TQ6KTnF0Q-60" value="" style="ellipse;whiteSpace=wrap;html=1;aspect=fixed;" vertex="1" parent="7FRll6Lz1_2TQ6KTnF0Q-34">
          <mxGeometry x="310" y="1270" width="20" height="20" as="geometry" />
        </mxCell>
        <mxCell id="7FRll6Lz1_2TQ6KTnF0Q-61" value="" style="endArrow=classic;html=1;rounded=0;" edge="1" parent="7FRll6Lz1_2TQ6KTnF0Q-34">
          <mxGeometry width="50" height="50" relative="1" as="geometry">
            <mxPoint x="319.5" y="1290" as="sourcePoint" />
            <mxPoint x="319.5" y="1330" as="targetPoint" />
          </mxGeometry>
        </mxCell>
        <mxCell id="7FRll6Lz1_2TQ6KTnF0Q-62" value="ดูรายการที่ลูกค้าเลือก" style="rounded=0;whiteSpace=wrap;html=1;" vertex="1" parent="7FRll6Lz1_2TQ6KTnF0Q-34">
          <mxGeometry x="260" y="1330" width="120" height="60" as="geometry" />
        </mxCell>
        <mxCell id="7FRll6Lz1_2TQ6KTnF0Q-63" value="" style="endArrow=classic;html=1;rounded=0;exitX=1;exitY=0.5;exitDx=0;exitDy=0;" edge="1" parent="7FRll6Lz1_2TQ6KTnF0Q-34" source="7FRll6Lz1_2TQ6KTnF0Q-53">
          <mxGeometry width="50" height="50" relative="1" as="geometry">
            <mxPoint x="540" y="980" as="sourcePoint" />
            <mxPoint x="540" y="1070" as="targetPoint" />
            <Array as="points">
              <mxPoint x="540" y="975" />
            </Array>
          </mxGeometry>
        </mxCell>
        <mxCell id="7FRll6Lz1_2TQ6KTnF0Q-64" value="จริง" style="edgeLabel;html=1;align=center;verticalAlign=middle;resizable=0;points=[];" vertex="1" connectable="0" parent="7FRll6Lz1_2TQ6KTnF0Q-63">
          <mxGeometry x="-0.528" y="1" relative="1" as="geometry">
            <mxPoint as="offset" />
          </mxGeometry>
        </mxCell>
        <mxCell id="7FRll6Lz1_2TQ6KTnF0Q-65" value="รับข้อมูลสินค้า" style="rounded=0;whiteSpace=wrap;html=1;" vertex="1" parent="7FRll6Lz1_2TQ6KTnF0Q-34">
          <mxGeometry x="480" y="1070" width="120" height="60" as="geometry" />
        </mxCell>
        <mxCell id="7FRll6Lz1_2TQ6KTnF0Q-66" value="" style="endArrow=classic;html=1;rounded=0;exitX=0.5;exitY=1;exitDx=0;exitDy=0;" edge="1" parent="7FRll6Lz1_2TQ6KTnF0Q-34" source="7FRll6Lz1_2TQ6KTnF0Q-65">
          <mxGeometry width="50" height="50" relative="1" as="geometry">
            <mxPoint x="540" y="1280" as="sourcePoint" />
            <mxPoint x="330" y="1279.5" as="targetPoint" />
            <Array as="points">
              <mxPoint x="540" y="1280" />
            </Array>
          </mxGeometry>
        </mxCell>
        <mxCell id="7FRll6Lz1_2TQ6KTnF0Q-67" value="" style="endArrow=classic;html=1;rounded=0;" edge="1" parent="7FRll6Lz1_2TQ6KTnF0Q-34">
          <mxGeometry width="50" height="50" relative="1" as="geometry">
            <mxPoint x="319.5" y="1390" as="sourcePoint" />
            <mxPoint x="319.5" y="1430" as="targetPoint" />
          </mxGeometry>
        </mxCell>
        <mxCell id="7FRll6Lz1_2TQ6KTnF0Q-68" value="ต้องการเลือกสินค้าเพิ่มหรือไม่?" style="rhombus;whiteSpace=wrap;html=1;" vertex="1" parent="7FRll6Lz1_2TQ6KTnF0Q-34">
          <mxGeometry x="255" y="1430" width="130" height="110" as="geometry" />
        </mxCell>
        <mxCell id="7FRll6Lz1_2TQ6KTnF0Q-69" value="" style="endArrow=classic;html=1;rounded=0;" edge="1" parent="7FRll6Lz1_2TQ6KTnF0Q-34">
          <mxGeometry width="50" height="50" relative="1" as="geometry">
            <mxPoint x="319.5" y="1540" as="sourcePoint" />
            <mxPoint x="319.5" y="1580" as="targetPoint" />
          </mxGeometry>
        </mxCell>
        <mxCell id="7FRll6Lz1_2TQ6KTnF0Q-70" value="เท็จ" style="edgeLabel;html=1;align=center;verticalAlign=middle;resizable=0;points=[];" vertex="1" connectable="0" parent="7FRll6Lz1_2TQ6KTnF0Q-69">
          <mxGeometry x="-0.2" y="1" relative="1" as="geometry">
            <mxPoint as="offset" />
          </mxGeometry>
        </mxCell>
        <mxCell id="7FRll6Lz1_2TQ6KTnF0Q-71" value="" style="endArrow=classic;html=1;rounded=0;exitX=0;exitY=0.5;exitDx=0;exitDy=0;entryX=0;entryY=0.5;entryDx=0;entryDy=0;" edge="1" parent="7FRll6Lz1_2TQ6KTnF0Q-34" source="7FRll6Lz1_2TQ6KTnF0Q-68" target="7FRll6Lz1_2TQ6KTnF0Q-49">
          <mxGeometry width="50" height="50" relative="1" as="geometry">
            <mxPoint x="150" y="1490" as="sourcePoint" />
            <mxPoint x="260" y="850" as="targetPoint" />
            <Array as="points">
              <mxPoint x="150" y="1485" />
              <mxPoint x="150" y="750" />
            </Array>
          </mxGeometry>
        </mxCell>
        <mxCell id="7FRll6Lz1_2TQ6KTnF0Q-72" value="จริง" style="edgeLabel;html=1;align=center;verticalAlign=middle;resizable=0;points=[];" vertex="1" connectable="0" parent="7FRll6Lz1_2TQ6KTnF0Q-71">
          <mxGeometry x="-0.8706" relative="1" as="geometry">
            <mxPoint as="offset" />
          </mxGeometry>
        </mxCell>
        <mxCell id="7FRll6Lz1_2TQ6KTnF0Q-73" value="ต้องการยกเลิกสินค้าหรือไม่?" style="rhombus;whiteSpace=wrap;html=1;" vertex="1" parent="7FRll6Lz1_2TQ6KTnF0Q-34">
          <mxGeometry x="255" y="1580" width="130" height="110" as="geometry" />
        </mxCell>
        <mxCell id="7FRll6Lz1_2TQ6KTnF0Q-74" value="" style="endArrow=classic;html=1;rounded=0;" edge="1" parent="7FRll6Lz1_2TQ6KTnF0Q-34">
          <mxGeometry width="50" height="50" relative="1" as="geometry">
            <mxPoint x="319.5" y="1690" as="sourcePoint" />
            <mxPoint x="319.5" y="1730" as="targetPoint" />
          </mxGeometry>
        </mxCell>
        <mxCell id="7FRll6Lz1_2TQ6KTnF0Q-75" value="จริง" style="edgeLabel;html=1;align=center;verticalAlign=middle;resizable=0;points=[];" vertex="1" connectable="0" parent="7FRll6Lz1_2TQ6KTnF0Q-74">
          <mxGeometry x="-0.2" y="2" relative="1" as="geometry">
            <mxPoint as="offset" />
          </mxGeometry>
        </mxCell>
        <mxCell id="7FRll6Lz1_2TQ6KTnF0Q-76" value="ยกเลิกสินค้า" style="shape=parallelogram;perimeter=parallelogramPerimeter;whiteSpace=wrap;html=1;fixedSize=1;" vertex="1" parent="7FRll6Lz1_2TQ6KTnF0Q-34">
          <mxGeometry x="260" y="1730" width="120" height="60" as="geometry" />
        </mxCell>
        <mxCell id="7FRll6Lz1_2TQ6KTnF0Q-77" value="" style="endArrow=classic;html=1;rounded=0;" edge="1" parent="7FRll6Lz1_2TQ6KTnF0Q-34">
          <mxGeometry width="50" height="50" relative="1" as="geometry">
            <mxPoint x="319.5" y="1790" as="sourcePoint" />
            <mxPoint x="319.5" y="1830" as="targetPoint" />
          </mxGeometry>
        </mxCell>
        <mxCell id="7FRll6Lz1_2TQ6KTnF0Q-78" value="ลบข้อมูลสินค้าทั้งหมด" style="rounded=0;whiteSpace=wrap;html=1;" vertex="1" parent="7FRll6Lz1_2TQ6KTnF0Q-34">
          <mxGeometry x="260" y="1830" width="120" height="60" as="geometry" />
        </mxCell>
        <mxCell id="7FRll6Lz1_2TQ6KTnF0Q-79" value="" style="endArrow=classic;html=1;rounded=0;" edge="1" parent="7FRll6Lz1_2TQ6KTnF0Q-34">
          <mxGeometry width="50" height="50" relative="1" as="geometry">
            <mxPoint x="319.5" y="1890" as="sourcePoint" />
            <mxPoint x="319.5" y="1930" as="targetPoint" />
          </mxGeometry>
        </mxCell>
        <mxCell id="7FRll6Lz1_2TQ6KTnF0Q-80" value="" style="ellipse;whiteSpace=wrap;html=1;aspect=fixed;" vertex="1" parent="7FRll6Lz1_2TQ6KTnF0Q-34">
          <mxGeometry x="310" y="1930" width="20" height="20" as="geometry" />
        </mxCell>
        <mxCell id="7FRll6Lz1_2TQ6KTnF0Q-81" value="" style="endArrow=classic;html=1;rounded=0;exitX=0.985;exitY=0.5;exitDx=0;exitDy=0;exitPerimeter=0;" edge="1" parent="7FRll6Lz1_2TQ6KTnF0Q-34" source="7FRll6Lz1_2TQ6KTnF0Q-73">
          <mxGeometry width="50" height="50" relative="1" as="geometry">
            <mxPoint x="425" y="1939.5" as="sourcePoint" />
            <mxPoint x="330" y="1939.5" as="targetPoint" />
            <Array as="points">
              <mxPoint x="470" y="1635" />
              <mxPoint x="470" y="1940" />
            </Array>
          </mxGeometry>
        </mxCell>
        <mxCell id="7FRll6Lz1_2TQ6KTnF0Q-82" value="เท็จ" style="edgeLabel;html=1;align=center;verticalAlign=middle;resizable=0;points=[];" vertex="1" connectable="0" parent="7FRll6Lz1_2TQ6KTnF0Q-81">
          <mxGeometry x="-0.8874" relative="1" as="geometry">
            <mxPoint as="offset" />
          </mxGeometry>
        </mxCell>
        <mxCell id="7FRll6Lz1_2TQ6KTnF0Q-83" value="" style="endArrow=classic;html=1;rounded=0;" edge="1" parent="7FRll6Lz1_2TQ6KTnF0Q-34">
          <mxGeometry width="50" height="50" relative="1" as="geometry">
            <mxPoint x="319.5" y="1950" as="sourcePoint" />
            <mxPoint x="319.5" y="1990" as="targetPoint" />
          </mxGeometry>
        </mxCell>
        <mxCell id="7FRll6Lz1_2TQ6KTnF0Q-84" value="คิดเงิน" style="shape=process;whiteSpace=wrap;html=1;backgroundOutline=1;" vertex="1" parent="7FRll6Lz1_2TQ6KTnF0Q-34">
          <mxGeometry x="230" y="1990" width="180" height="60" as="geometry" />
        </mxCell>
        <mxCell id="7FRll6Lz1_2TQ6KTnF0Q-85" value="" style="endArrow=classic;html=1;rounded=0;" edge="1" parent="7FRll6Lz1_2TQ6KTnF0Q-34">
          <mxGeometry width="50" height="50" relative="1" as="geometry">
            <mxPoint x="319.5" y="2050" as="sourcePoint" />
            <mxPoint x="319.5" y="2090" as="targetPoint" />
          </mxGeometry>
        </mxCell>
        <mxCell id="7FRll6Lz1_2TQ6KTnF0Q-86" value="แสดงจำนวนสินค้า ราคาและรวมราคาสินค้า" style="shape=parallelogram;perimeter=parallelogramPerimeter;whiteSpace=wrap;html=1;fixedSize=1;" vertex="1" parent="7FRll6Lz1_2TQ6KTnF0Q-34">
          <mxGeometry x="196" y="2090" width="248" height="110" as="geometry" />
        </mxCell>
        <mxCell id="7FRll6Lz1_2TQ6KTnF0Q-87" value="" style="endArrow=classic;html=1;rounded=0;" edge="1" parent="7FRll6Lz1_2TQ6KTnF0Q-34">
          <mxGeometry width="50" height="50" relative="1" as="geometry">
            <mxPoint x="319.5" y="2200" as="sourcePoint" />
            <mxPoint x="319.5" y="2240" as="targetPoint" />
          </mxGeometry>
        </mxCell>
        <mxCell id="7FRll6Lz1_2TQ6KTnF0Q-88" value="รวมราคาสินค้าที่ต้องจ่าย" style="rounded=0;whiteSpace=wrap;html=1;" vertex="1" parent="7FRll6Lz1_2TQ6KTnF0Q-34">
          <mxGeometry x="260" y="2240" width="120" height="60" as="geometry" />
        </mxCell>
        <mxCell id="7FRll6Lz1_2TQ6KTnF0Q-89" value="" style="endArrow=classic;html=1;rounded=0;" edge="1" parent="7FRll6Lz1_2TQ6KTnF0Q-34">
          <mxGeometry width="50" height="50" relative="1" as="geometry">
            <mxPoint x="319.5" y="2300" as="sourcePoint" />
            <mxPoint x="319.5" y="2340" as="targetPoint" />
          </mxGeometry>
        </mxCell>
        <mxCell id="7FRll6Lz1_2TQ6KTnF0Q-90" value="จ่ายเงิน" style="rounded=0;whiteSpace=wrap;html=1;" vertex="1" parent="7FRll6Lz1_2TQ6KTnF0Q-34">
          <mxGeometry x="260" y="2340" width="120" height="60" as="geometry" />
        </mxCell>
        <mxCell id="7FRll6Lz1_2TQ6KTnF0Q-91" value="" style="endArrow=classic;html=1;rounded=0;" edge="1" parent="7FRll6Lz1_2TQ6KTnF0Q-34">
          <mxGeometry width="50" height="50" relative="1" as="geometry">
            <mxPoint x="319.5" y="2400" as="sourcePoint" />
            <mxPoint x="319.5" y="2440" as="targetPoint" />
          </mxGeometry>
        </mxCell>
        <mxCell id="7FRll6Lz1_2TQ6KTnF0Q-92" value="จ่ายเงินครบหรือไม่?" style="rhombus;whiteSpace=wrap;html=1;" vertex="1" parent="7FRll6Lz1_2TQ6KTnF0Q-34">
          <mxGeometry x="255" y="2540" width="130" height="110" as="geometry" />
        </mxCell>
        <mxCell id="7FRll6Lz1_2TQ6KTnF0Q-93" value="" style="endArrow=classic;html=1;rounded=0;" edge="1" parent="7FRll6Lz1_2TQ6KTnF0Q-34">
          <mxGeometry width="50" height="50" relative="1" as="geometry">
            <mxPoint x="319.13" y="2650" as="sourcePoint" />
            <mxPoint x="319.13" y="2690" as="targetPoint" />
          </mxGeometry>
        </mxCell>
        <mxCell id="7FRll6Lz1_2TQ6KTnF0Q-94" value="จริง" style="edgeLabel;html=1;align=center;verticalAlign=middle;resizable=0;points=[];" vertex="1" connectable="0" parent="7FRll6Lz1_2TQ6KTnF0Q-93">
          <mxGeometry x="-0.1261" relative="1" as="geometry">
            <mxPoint as="offset" />
          </mxGeometry>
        </mxCell>
        <mxCell id="7FRll6Lz1_2TQ6KTnF0Q-95" value="กรุณาชำระงิน" style="shape=parallelogram;perimeter=parallelogramPerimeter;whiteSpace=wrap;html=1;fixedSize=1;" vertex="1" parent="7FRll6Lz1_2TQ6KTnF0Q-34">
          <mxGeometry x="255" y="2440" width="120" height="60" as="geometry" />
        </mxCell>
        <mxCell id="7FRll6Lz1_2TQ6KTnF0Q-96" value="" style="endArrow=classic;html=1;rounded=0;" edge="1" parent="7FRll6Lz1_2TQ6KTnF0Q-34">
          <mxGeometry width="50" height="50" relative="1" as="geometry">
            <mxPoint x="319.57" y="2500" as="sourcePoint" />
            <mxPoint x="319.57" y="2540" as="targetPoint" />
          </mxGeometry>
        </mxCell>
        <mxCell id="7FRll6Lz1_2TQ6KTnF0Q-97" value="" style="endArrow=classic;html=1;rounded=0;exitX=1;exitY=0.5;exitDx=0;exitDy=0;" edge="1" parent="7FRll6Lz1_2TQ6KTnF0Q-34" source="7FRll6Lz1_2TQ6KTnF0Q-92">
          <mxGeometry width="50" height="50" relative="1" as="geometry">
            <mxPoint x="500" y="2380" as="sourcePoint" />
            <mxPoint x="380" y="2380" as="targetPoint" />
            <Array as="points">
              <mxPoint x="510" y="2595" />
              <mxPoint x="510" y="2380" />
            </Array>
          </mxGeometry>
        </mxCell>
        <mxCell id="7FRll6Lz1_2TQ6KTnF0Q-98" value="เท็จ" style="edgeLabel;html=1;align=center;verticalAlign=middle;resizable=0;points=[];" vertex="1" connectable="0" parent="7FRll6Lz1_2TQ6KTnF0Q-97">
          <mxGeometry x="-0.8142" y="1" relative="1" as="geometry">
            <mxPoint as="offset" />
          </mxGeometry>
        </mxCell>
        <mxCell id="7FRll6Lz1_2TQ6KTnF0Q-99" value="คำนวณเงินทอน" style="shape=process;whiteSpace=wrap;html=1;backgroundOutline=1;" vertex="1" parent="7FRll6Lz1_2TQ6KTnF0Q-34">
          <mxGeometry x="230" y="2690" width="180" height="60" as="geometry" />
        </mxCell>
        <mxCell id="7FRll6Lz1_2TQ6KTnF0Q-100" value="" style="endArrow=classic;html=1;rounded=0;" edge="1" parent="7FRll6Lz1_2TQ6KTnF0Q-34">
          <mxGeometry width="50" height="50" relative="1" as="geometry">
            <mxPoint x="319.57" y="2750" as="sourcePoint" />
            <mxPoint x="319.57" y="2790" as="targetPoint" />
          </mxGeometry>
        </mxCell>
        <mxCell id="7FRll6Lz1_2TQ6KTnF0Q-101" value="รับเงินทอน" style="shape=parallelogram;perimeter=parallelogramPerimeter;whiteSpace=wrap;html=1;fixedSize=1;" vertex="1" parent="7FRll6Lz1_2TQ6KTnF0Q-34">
          <mxGeometry x="260" y="2790" width="120" height="60" as="geometry" />
        </mxCell>
        <mxCell id="7FRll6Lz1_2TQ6KTnF0Q-102" value="" style="endArrow=classic;html=1;rounded=0;" edge="1" parent="7FRll6Lz1_2TQ6KTnF0Q-34">
          <mxGeometry width="50" height="50" relative="1" as="geometry">
            <mxPoint x="319.57" y="2850" as="sourcePoint" />
            <mxPoint x="319.57" y="2890" as="targetPoint" />
          </mxGeometry>
        </mxCell>
        <mxCell id="7FRll6Lz1_2TQ6KTnF0Q-103" value="รับสินค้า" style="shape=parallelogram;perimeter=parallelogramPerimeter;whiteSpace=wrap;html=1;fixedSize=1;" vertex="1" parent="7FRll6Lz1_2TQ6KTnF0Q-34">
          <mxGeometry x="255" y="2890" width="120" height="60" as="geometry" />
        </mxCell>
        <mxCell id="7FRll6Lz1_2TQ6KTnF0Q-104" value="" style="endArrow=classic;html=1;rounded=0;" edge="1" parent="7FRll6Lz1_2TQ6KTnF0Q-34">
          <mxGeometry width="50" height="50" relative="1" as="geometry">
            <mxPoint x="319.57" y="2950" as="sourcePoint" />
            <mxPoint x="319.57" y="2990" as="targetPoint" />
          </mxGeometry>
        </mxCell>
        <mxCell id="7FRll6Lz1_2TQ6KTnF0Q-105" value="คำนวณยอดเงินในตู้&lt;div&gt;โดยเงินทอนที่ตั้งไว้+เงินที่ขายสินค้าได้และเงินทอนเหลืออะไรบ้างเหรียญต่างๆเหลือเท่าไหร่ แบงค์เหลือเท่าไหร่ อะไรบ้าง&lt;/div&gt;" style="rounded=0;whiteSpace=wrap;html=1;" vertex="1" parent="7FRll6Lz1_2TQ6KTnF0Q-34">
          <mxGeometry x="196" y="2990" width="249.99" height="93" as="geometry" />
        </mxCell>
        <mxCell id="7FRll6Lz1_2TQ6KTnF0Q-106" value="" style="endArrow=classic;html=1;rounded=0;" edge="1" parent="7FRll6Lz1_2TQ6KTnF0Q-34">
          <mxGeometry width="50" height="50" relative="1" as="geometry">
            <mxPoint x="319.33000000000004" y="3083" as="sourcePoint" />
            <mxPoint x="319.33000000000004" y="3123" as="targetPoint" />
          </mxGeometry>
        </mxCell>
        <mxCell id="7FRll6Lz1_2TQ6KTnF0Q-107" value="&lt;font data-font-src=&quot;https://fonts.googleapis.com/css?family=Sarabun&quot; face=&quot;Sarabun&quot;&gt;โจทย์ปัญหา&lt;/font&gt;" style="swimlane;whiteSpace=wrap;html=1;" vertex="1" parent="1">
          <mxGeometry x="134" y="320" width="640" height="240" as="geometry" />
        </mxCell>
        <mxCell id="7FRll6Lz1_2TQ6KTnF0Q-108" value="&lt;font data-font-src=&quot;https://fonts.googleapis.com/css?family=Sarabun&quot; face=&quot;Sarabun&quot; style=&quot;font-size: 14px;&quot;&gt;จงเขียน Flowchart เพื่อแสดงขั้นตอนการทำงาน ของเครื่องขายน้ำอัตโนมัติที่ชื่อว่า &quot;ตะพาบลอย&quot;&lt;br&gt;โดยจะต้องมีสินค้าดังนี้&lt;br&gt;&lt;u&gt;ประเภทน้ำ&lt;span style=&quot;white-space: pre;&quot;&gt;&#x9;&lt;/span&gt;&lt;span style=&quot;white-space: pre;&quot;&gt;&#x9;&lt;/span&gt;&lt;span style=&quot;white-space: pre;&quot;&gt;&#x9;&lt;/span&gt;&lt;span style=&quot;white-space: pre;&quot;&gt;&#x9;&lt;/span&gt;&lt;span style=&quot;white-space: pre;&quot;&gt;&#x9;&lt;/span&gt;&lt;span style=&quot;white-space: pre;&quot;&gt;&#x9;&lt;span style=&quot;white-space: pre;&quot;&gt;&#x9;&lt;/span&gt;ข&lt;/span&gt;นม&lt;/u&gt;&lt;br&gt;&lt;span style=&quot;white-space: pre;&quot;&gt;&#x9;&lt;/span&gt;- โค้ก กระป๋องละ 10 บาท&lt;span style=&quot;white-space: pre;&quot;&gt;&#x9;&lt;/span&gt;&lt;span style=&quot;white-space: pre;&quot;&gt;&#x9;&lt;/span&gt;&lt;span style=&quot;white-space: pre;&quot;&gt;&#x9;&lt;/span&gt;&lt;span style=&quot;white-space: pre;&quot;&gt;&#x9;&lt;/span&gt;- เมล็ดทานตะวัน 13 บาท&lt;br&gt;&lt;span style=&quot;white-space: pre;&quot;&gt;&#x9;&lt;/span&gt;- น้ำเขียว กระป๋องละ 12 บาท&lt;span style=&quot;white-space: pre;&quot;&gt;&#x9;&lt;/span&gt;&lt;span style=&quot;white-space: pre;&quot;&gt;&#x9;&lt;/span&gt;&lt;span style=&quot;white-space: pre;&quot;&gt;&#x9;&lt;/span&gt;- ถั่วแปบ 20 บาท&lt;br&gt;&lt;span style=&quot;white-space: pre;&quot;&gt;&#x9;&lt;/span&gt;- อเมริกาโน่ 30 บาท&lt;span style=&quot;white-space: pre;&quot;&gt;&#x9;&lt;/span&gt;&lt;span style=&quot;white-space: pre;&quot;&gt;&#x9;&lt;/span&gt;&lt;span style=&quot;white-space: pre;&quot;&gt;&#x9;&lt;/span&gt;&lt;span style=&quot;white-space: pre;&quot;&gt;&#x9;&lt;/span&gt;&lt;span style=&quot;white-space: pre;&quot;&gt;&#x9;&lt;/span&gt;- จิ้นส้มหมก 15 บาท&lt;br&gt;&lt;span style=&quot;white-space: pre;&quot;&gt;&#x9;&lt;/span&gt;- ลาเต้ หวานเจี๊ยบ 35 บาท&lt;span style=&quot;white-space: pre;&quot;&gt;&#x9;&lt;/span&gt;&lt;br&gt;&lt;br&gt;&lt;u&gt;สิ่งที่ระบบควรจะทำได้&lt;/u&gt;&lt;br&gt;&lt;span style=&quot;white-space: pre;&quot;&gt;&#x9;&lt;/span&gt;- ลูกค้าเลือกสินค้า, ระบบจะต้องรวมยอดขาย และรวมรายการสินค้าทั้งหมดที่ลูกค้าเลือก&lt;br&gt;&lt;span style=&quot;white-space: pre;&quot;&gt;&#x9;&lt;/span&gt;- สรุปยอดว่าเหลือเงินในตู้อีกเท่าไหร่ เหลือเหรียญอะไรบ้าง? ธนบัตรอะไรบ้าง? อย่างละเท่าไหร่?&lt;br&gt;&lt;br&gt;&lt;br&gt;&lt;/font&gt;" style="text;html=1;align=left;verticalAlign=middle;resizable=0;points=[];autosize=1;strokeColor=none;fillColor=none;fontSize=14;" vertex="1" parent="7FRll6Lz1_2TQ6KTnF0Q-107">
          <mxGeometry x="25" y="30" width="580" height="240" as="geometry" />
        </mxCell>
        <mxCell id="7FRll6Lz1_2TQ6KTnF0Q-109" value="&lt;font data-font-src=&quot;https://fonts.googleapis.com/css?family=Sarabun&quot; face=&quot;Sarabun&quot;&gt;เริ่มต้น&lt;/font&gt;" style="ellipse;whiteSpace=wrap;html=1;" vertex="1" parent="1">
          <mxGeometry x="389" y="3990" width="130" height="30" as="geometry" />
        </mxCell>
        <mxCell id="7FRll6Lz1_2TQ6KTnF0Q-110" value="" style="endArrow=classic;html=1;rounded=0;" edge="1" parent="1">
          <mxGeometry width="50" height="50" relative="1" as="geometry">
            <mxPoint x="453.5" y="4020" as="sourcePoint" />
            <mxPoint x="453.5" y="4070" as="targetPoint" />
          </mxGeometry>
        </mxCell>
        <mxCell id="7FRll6Lz1_2TQ6KTnF0Q-111" value="&lt;div&gt;&lt;span style=&quot;font-size: 14px; text-wrap-mode: nowrap;&quot;&gt;กำหนดค่าของประเภทน้ำ&lt;/span&gt;&lt;/div&gt;&lt;div&gt;&lt;span style=&quot;font-size: 14px; text-wrap-mode: nowrap;&quot;&gt;โค้ก กระป๋องละ 10 บาท&lt;/span&gt;&lt;/div&gt;&lt;div&gt;&lt;span style=&quot;font-size: 14px; text-wrap-mode: nowrap;&quot;&gt;น้ำเขียว กระป๋องละ 12 บาท&lt;/span&gt;&lt;/div&gt;&lt;div&gt;&lt;span style=&quot;font-size: 14px; text-wrap-mode: nowrap; background-color: transparent; color: light-dark(rgb(0, 0, 0), rgb(255, 255, 255));&quot;&gt;อเมริกาโน่ 30 บาท&lt;/span&gt;&lt;/div&gt;&lt;div&gt;&lt;span style=&quot;font-size: 14px; text-wrap-mode: nowrap;&quot;&gt;ลาเต้ หวานเจี๊ยบ 35 บาท&lt;/span&gt;&lt;/div&gt;&lt;div&gt;&lt;div style=&quot;&quot;&gt;&lt;span style=&quot;font-size: 14px; text-wrap-mode: nowrap;&quot;&gt;เมล็ดทานตะวัน 13 บาท&lt;/span&gt;&lt;/div&gt;&lt;div style=&quot;&quot;&gt;&lt;span style=&quot;font-size: 14px; text-wrap-mode: nowrap;&quot;&gt;ถั่วแปบ 20 บาท&lt;/span&gt;&lt;/div&gt;&lt;div style=&quot;&quot;&gt;&lt;span style=&quot;font-size: 14px; text-wrap-mode: nowrap;&quot;&gt;จิ้นส้มหมก 15 บาท&lt;/span&gt;&lt;/div&gt;&lt;/div&gt;" style="rounded=0;whiteSpace=wrap;html=1;fontFamily=Sarabun;fontSource=https%3A%2F%2Ffonts.googleapis.com%2Fcss%3Ffamily%3DSarabun;align=center;" vertex="1" parent="1">
          <mxGeometry x="319" y="4080" width="270" height="210" as="geometry" />
        </mxCell>
        <mxCell id="7FRll6Lz1_2TQ6KTnF0Q-112" value="คำนวณราคาที่ต้องจ่าย&lt;div&gt;&lt;li data-end=&quot;282&quot; data-start=&quot;230&quot;&gt;&lt;p data-end=&quot;282&quot; data-start=&quot;232&quot;&gt;&lt;span class=&quot;katex&quot;&gt;&lt;span class=&quot;katex-mathml&quot;&gt;&lt;math xmlns=&quot;http://www.w3.org/1998/Math/MathML&quot;&gt;&lt;mrow&gt;&lt;msub&gt;&lt;mi&gt;P&lt;/mi&gt;&lt;mi&gt;i&lt;/mi&gt;&lt;/msub&gt;&lt;/mrow&gt;P_i&lt;/math&gt;&lt;/span&gt;&lt;span aria-hidden=&quot;true&quot; class=&quot;katex-html&quot;&gt;&lt;span class=&quot;base&quot;&gt;&lt;span class=&quot;strut&quot;&gt;&lt;/span&gt;&lt;span class=&quot;mord&quot;&gt;&lt;span class=&quot;mord mathnormal&quot;&gt;P&lt;/span&gt;&lt;span class=&quot;msupsub&quot;&gt;&lt;span class=&quot;vlist-t vlist-t2&quot;&gt;&lt;span class=&quot;vlist-r&quot;&gt;&lt;span class=&quot;vlist&quot;&gt;&lt;span class=&quot;pstrut&quot;&gt;&lt;/span&gt;&lt;span class=&quot;sizing reset-size6 size3 mtight&quot;&gt;&lt;span class=&quot;mord mathnormal mtight&quot;&gt;i&lt;/span&gt;&lt;/span&gt;&lt;/span&gt;&lt;span class=&quot;vlist-s&quot;&gt;​&lt;/span&gt;&lt;/span&gt;&lt;span class=&quot;vlist-r&quot;&gt;&lt;span class=&quot;vlist&quot;&gt;&lt;/span&gt;&lt;/span&gt;&lt;/span&gt;&lt;/span&gt;&lt;/span&gt;&lt;/span&gt;&lt;/span&gt;&lt;/span&gt; = ราคาต่อหน่วยของสินค้าชิ้นที่ &lt;span class=&quot;katex&quot;&gt;&lt;span class=&quot;katex-mathml&quot;&gt;&lt;math xmlns=&quot;http://www.w3.org/1998/Math/MathML&quot;&gt;&lt;mrow&gt;&lt;mi&gt;i&lt;/mi&gt;&lt;/mrow&gt;i&lt;/math&gt;&lt;/span&gt;&lt;span aria-hidden=&quot;true&quot; class=&quot;katex-html&quot;&gt;&lt;span class=&quot;base&quot;&gt;&lt;span class=&quot;strut&quot;&gt;&lt;/span&gt;&lt;span class=&quot;mord mathnormal&quot;&gt;i&lt;/span&gt;&lt;/span&gt;&lt;/span&gt;&lt;/span&gt;&lt;/p&gt;&lt;/li&gt;&lt;li data-end=&quot;323&quot; data-start=&quot;283&quot;&gt;&lt;p data-end=&quot;323&quot; data-start=&quot;285&quot;&gt;&lt;span class=&quot;katex&quot;&gt;&lt;span class=&quot;katex-mathml&quot;&gt;&lt;math xmlns=&quot;http://www.w3.org/1998/Math/MathML&quot;&gt;&lt;mrow&gt;&lt;msub&gt;&lt;mi&gt;Q&lt;/mi&gt;&lt;mi&gt;i&lt;/mi&gt;&lt;/msub&gt;&lt;/mrow&gt;Q_i&lt;/math&gt;&lt;/span&gt;&lt;span aria-hidden=&quot;true&quot; class=&quot;katex-html&quot;&gt;&lt;span class=&quot;base&quot;&gt;&lt;span class=&quot;strut&quot;&gt;&lt;/span&gt;&lt;span class=&quot;mord&quot;&gt;&lt;span class=&quot;mord mathnormal&quot;&gt;Q&lt;/span&gt;&lt;span class=&quot;msupsub&quot;&gt;&lt;span class=&quot;vlist-t vlist-t2&quot;&gt;&lt;span class=&quot;vlist-r&quot;&gt;&lt;span class=&quot;vlist&quot;&gt;&lt;span class=&quot;pstrut&quot;&gt;&lt;/span&gt;&lt;span class=&quot;sizing reset-size6 size3 mtight&quot;&gt;&lt;span class=&quot;mord mathnormal mtight&quot;&gt;i&lt;/span&gt;&lt;/span&gt;&lt;/span&gt;&lt;span class=&quot;vlist-s&quot;&gt;​&lt;/span&gt;&lt;/span&gt;&lt;span class=&quot;vlist-r&quot;&gt;&lt;span class=&quot;vlist&quot;&gt;&lt;/span&gt;&lt;/span&gt;&lt;/span&gt;&lt;/span&gt;&lt;/span&gt;&lt;/span&gt;&lt;/span&gt;&lt;/span&gt; = จำนวนสินค้าชิ้นที่ &lt;span class=&quot;katex&quot;&gt;&lt;span class=&quot;katex-mathml&quot;&gt;&lt;math xmlns=&quot;http://www.w3.org/1998/Math/MathML&quot;&gt;&lt;mrow&gt;&lt;mi&gt;i&lt;/mi&gt;&lt;/mrow&gt;i&lt;/math&gt;&lt;/span&gt;&lt;span aria-hidden=&quot;true&quot; class=&quot;katex-html&quot;&gt;&lt;span class=&quot;base&quot;&gt;&lt;span class=&quot;strut&quot;&gt;&lt;/span&gt;&lt;span class=&quot;mord mathnormal&quot;&gt;i&lt;/span&gt;&lt;/span&gt;&lt;/span&gt;&lt;/span&gt;&lt;/p&gt;&lt;/li&gt;&lt;li data-end=&quot;323&quot; data-start=&quot;283&quot;&gt;&lt;p data-end=&quot;323&quot; data-start=&quot;285&quot;&gt;&lt;span style=&quot;background-color: transparent; color: light-dark(rgb(0, 0, 0), rgb(255, 255, 255));&quot; class=&quot;base&quot;&gt;&lt;span class=&quot;mord text&quot;&gt;&lt;span class=&quot;mord brahmic_fallback&quot;&gt;ราคารวมทั้งหมด&lt;/span&gt;&lt;/span&gt;&lt;span class=&quot;mspace&quot;&gt;&lt;/span&gt;&lt;span class=&quot;mrel&quot;&gt;=&lt;/span&gt;&lt;span class=&quot;mspace&quot;&gt;&lt;/span&gt;&lt;/span&gt;&lt;span style=&quot;background-color: transparent; color: light-dark(rgb(0, 0, 0), rgb(255, 255, 255));&quot; class=&quot;base&quot;&gt;&lt;span class=&quot;strut&quot;&gt;&lt;/span&gt;&lt;span class=&quot;mop op-limits&quot;&gt;&lt;span class=&quot;vlist-t vlist-t2&quot;&gt;&lt;span class=&quot;vlist-r&quot;&gt;&lt;span class=&quot;vlist&quot;&gt;&lt;span class=&quot;pstrut&quot;&gt;&lt;/span&gt;&lt;span class=&quot;sizing reset-size6 size3 mtight&quot;&gt;&lt;span class=&quot;mord mtight&quot;&gt;&lt;span class=&quot;mord mathnormal mtight&quot;&gt;i&lt;/span&gt;&lt;span class=&quot;mrel mtight&quot;&gt;=&lt;/span&gt;&lt;span class=&quot;mord mtight&quot;&gt;1&lt;/span&gt;&lt;/span&gt;&lt;/span&gt;&lt;span class=&quot;pstrut&quot;&gt;&lt;/span&gt;&lt;span class=&quot;mop op-symbol large-op&quot;&gt;∑&lt;/span&gt;&lt;span class=&quot;pstrut&quot;&gt;&lt;/span&gt;&lt;span class=&quot;sizing reset-size6 size3 mtight&quot;&gt;&lt;span class=&quot;mord mtight&quot;&gt;&lt;span class=&quot;mord mathnormal mtight&quot;&gt;n&lt;/span&gt;&lt;/span&gt;&lt;/span&gt;&lt;/span&gt;&lt;span class=&quot;vlist-s&quot;&gt;​&lt;/span&gt;&lt;/span&gt;&lt;span class=&quot;vlist-r&quot;&gt;&lt;span class=&quot;vlist&quot;&gt;&lt;/span&gt;&lt;/span&gt;&lt;/span&gt;&lt;/span&gt;&lt;span class=&quot;mopen&quot;&gt;(&lt;/span&gt;&lt;span class=&quot;mord&quot;&gt;&lt;span class=&quot;mord mathnormal&quot;&gt;P&lt;/span&gt;&lt;span class=&quot;msupsub&quot;&gt;&lt;span class=&quot;vlist-t vlist-t2&quot;&gt;&lt;span class=&quot;vlist-r&quot;&gt;&lt;span class=&quot;vlist&quot;&gt;&lt;span class=&quot;pstrut&quot;&gt;&lt;/span&gt;&lt;span class=&quot;sizing reset-size6 size3 mtight&quot;&gt;&lt;span class=&quot;mord mathnormal mtight&quot;&gt;i&lt;/span&gt;&lt;/span&gt;&lt;/span&gt;&lt;span class=&quot;vlist-s&quot;&gt;​&lt;/span&gt;&lt;/span&gt;&lt;span class=&quot;vlist-r&quot;&gt;&lt;span class=&quot;vlist&quot;&gt;&lt;/span&gt;&lt;/span&gt;&lt;/span&gt;&lt;/span&gt;&lt;/span&gt;&lt;span class=&quot;mspace&quot;&gt;&lt;/span&gt;&lt;span class=&quot;mbin&quot;&gt;×&lt;/span&gt;&lt;span class=&quot;mspace&quot;&gt;&lt;/span&gt;&lt;/span&gt;&lt;span style=&quot;background-color: transparent; color: light-dark(rgb(0, 0, 0), rgb(255, 255, 255));&quot; class=&quot;base&quot;&gt;&lt;span class=&quot;strut&quot;&gt;&lt;/span&gt;&lt;span class=&quot;mord&quot;&gt;&lt;span class=&quot;mord mathnormal&quot;&gt;Q&lt;/span&gt;&lt;span class=&quot;msupsub&quot;&gt;&lt;span class=&quot;vlist-t vlist-t2&quot;&gt;&lt;span class=&quot;vlist-r&quot;&gt;&lt;span class=&quot;vlist&quot;&gt;&lt;span class=&quot;pstrut&quot;&gt;&lt;/span&gt;&lt;span class=&quot;sizing reset-size6 size3 mtight&quot;&gt;&lt;span class=&quot;mord mathnormal mtight&quot;&gt;i&lt;/span&gt;&lt;/span&gt;&lt;/span&gt;&lt;span class=&quot;vlist-s&quot;&gt;​&lt;/span&gt;&lt;/span&gt;&lt;span class=&quot;vlist-r&quot;&gt;&lt;span class=&quot;vlist&quot;&gt;&lt;/span&gt;&lt;/span&gt;&lt;/span&gt;&lt;/span&gt;&lt;/span&gt;&lt;span class=&quot;mclose&quot;&gt;)&lt;/span&gt;&lt;/span&gt;&lt;/p&gt;&lt;/li&gt;&lt;li data-end=&quot;323&quot; data-start=&quot;283&quot;&gt;&lt;p data-end=&quot;419&quot; data-start=&quot;407&quot;&gt;&lt;/p&gt;&lt;/li&gt;&lt;/div&gt;" style="rounded=0;whiteSpace=wrap;html=1;fontFamily=Sarabun;fontSource=https%3A%2F%2Ffonts.googleapis.com%2Fcss%3Ffamily%3DSarabun;" vertex="1" parent="1">
          <mxGeometry x="299" y="4340" width="320" height="230" as="geometry" />
        </mxCell>
        <mxCell id="7FRll6Lz1_2TQ6KTnF0Q-113" value="" style="endArrow=classic;html=1;rounded=0;" edge="1" parent="1">
          <mxGeometry width="50" height="50" relative="1" as="geometry">
            <mxPoint x="453" y="4300" as="sourcePoint" />
            <mxPoint x="453.5" y="4330" as="targetPoint" />
          </mxGeometry>
        </mxCell>
        <mxCell id="7FRll6Lz1_2TQ6KTnF0Q-114" value="" style="endArrow=classic;html=1;rounded=0;" edge="1" parent="1">
          <mxGeometry width="50" height="50" relative="1" as="geometry">
            <mxPoint x="453.63" y="4590" as="sourcePoint" />
            <mxPoint x="454.13" y="4620" as="targetPoint" />
          </mxGeometry>
        </mxCell>
        <mxCell id="7FRll6Lz1_2TQ6KTnF0Q-115" value="ฟังก์ชัน/โมดูล คิดเงิน" style="swimlane;" vertex="1" parent="1">
          <mxGeometry x="229.63" y="3930" width="448.75" height="740" as="geometry" />
        </mxCell>
        <mxCell id="7FRll6Lz1_2TQ6KTnF0Q-116" value="&lt;font face=&quot;Sarabun&quot;&gt;สิ้นสุด&lt;/font&gt;" style="ellipse;whiteSpace=wrap;html=1;" vertex="1" parent="7FRll6Lz1_2TQ6KTnF0Q-115">
          <mxGeometry x="159.37" y="700" width="130" height="30" as="geometry" />
        </mxCell>
        <mxCell id="7FRll6Lz1_2TQ6KTnF0Q-117" value="&lt;font data-font-src=&quot;https://fonts.googleapis.com/css?family=Sarabun&quot; face=&quot;Sarabun&quot;&gt;ฟังก์ชัน/โมดูล คิดเงิน&lt;/font&gt;" style="shape=process;whiteSpace=wrap;html=1;backgroundOutline=1;" vertex="1" parent="1">
          <mxGeometry x="365.88" y="5040" width="155" height="30" as="geometry" />
        </mxCell>
        <mxCell id="7FRll6Lz1_2TQ6KTnF0Q-118" value="กำหนดแบงค์ทั้งหมดและเหรียญ" style="rounded=0;whiteSpace=wrap;html=1;" vertex="1" parent="1">
          <mxGeometry x="383.38" y="4900" width="120" height="60" as="geometry" />
        </mxCell>
        <mxCell id="7FRll6Lz1_2TQ6KTnF0Q-119" value="" style="endArrow=classic;html=1;rounded=0;" edge="1" parent="1">
          <mxGeometry width="50" height="50" relative="1" as="geometry">
            <mxPoint x="443.40999999999997" y="4980" as="sourcePoint" />
            <mxPoint x="443.03999999999996" y="5020" as="targetPoint" />
          </mxGeometry>
        </mxCell>
        <mxCell id="7FRll6Lz1_2TQ6KTnF0Q-120" value="" style="endArrow=classic;html=1;rounded=0;" edge="1" parent="1">
          <mxGeometry width="50" height="50" relative="1" as="geometry">
            <mxPoint x="443.04999999999995" y="5090" as="sourcePoint" />
            <mxPoint x="443.0312499999998" y="5140" as="targetPoint" />
          </mxGeometry>
        </mxCell>
        <mxCell id="7FRll6Lz1_2TQ6KTnF0Q-121" value="S=เงินที่ลูกค้าจ่ายเข้ามา&lt;div&gt;U=ฟังก์ชันโมดูล คิดเงิน&lt;/div&gt;&lt;div&gt;P=S-U&lt;/div&gt;" style="rounded=0;whiteSpace=wrap;html=1;" vertex="1" parent="1">
          <mxGeometry x="360.88" y="5150" width="165" height="60" as="geometry" />
        </mxCell>
        <mxCell id="7FRll6Lz1_2TQ6KTnF0Q-122" value="" style="endArrow=classic;html=1;rounded=0;" edge="1" parent="1" target="7FRll6Lz1_2TQ6KTnF0Q-123">
          <mxGeometry width="50" height="50" relative="1" as="geometry">
            <mxPoint x="443.05875000000026" y="5230" as="sourcePoint" />
            <mxPoint x="443.03999999999996" y="5280" as="targetPoint" />
          </mxGeometry>
        </mxCell>
        <mxCell id="7FRll6Lz1_2TQ6KTnF0Q-123" value="เมื่อPติดลบแปลว่าลูกค้าจ่ายเงินไม่ครบให้จ่ายเพิ่ม&lt;div&gt;เมื่อ&lt;span style=&quot;background-color: transparent; color: light-dark(rgb(0, 0, 0), rgb(255, 255, 255));&quot;&gt;P=0แปลว่าลูกค้าจ่ายเงินพอดี&lt;/span&gt;&lt;div&gt;&lt;div&gt;เมื่อลูกค้าPมีค่ามากกว่า0แปลว่าลูกค้าจ่ายเงินมาเกินต้องทอนเงิน&lt;/div&gt;&lt;/div&gt;&lt;/div&gt;" style="rounded=0;whiteSpace=wrap;html=1;" vertex="1" parent="1">
          <mxGeometry x="219.63" y="5290" width="447.5" height="60" as="geometry" />
        </mxCell>
        <mxCell id="7FRll6Lz1_2TQ6KTnF0Q-124" value="" style="endArrow=classic;html=1;rounded=0;" edge="1" parent="1" target="7FRll6Lz1_2TQ6KTnF0Q-125">
          <mxGeometry width="50" height="50" relative="1" as="geometry">
            <mxPoint x="443.03999999999996" y="5370" as="sourcePoint" />
            <mxPoint x="443.3612499999998" y="5430" as="targetPoint" />
          </mxGeometry>
        </mxCell>
        <mxCell id="7FRll6Lz1_2TQ6KTnF0Q-125" value="เมื่อPมากกว่า0ทอนเงินลูกค้าโดยที่ดูว่าเงินทอนเหลือเท่าไหร่ต้องทอนเท่าไหร่และต้องทอนแบงค์ไรบ้างและเหรียญไรบ้าง" style="rounded=0;whiteSpace=wrap;html=1;" vertex="1" parent="1">
          <mxGeometry x="370.87" y="5400" width="145.02" height="110" as="geometry" />
        </mxCell>
        <mxCell id="7FRll6Lz1_2TQ6KTnF0Q-126" value="&lt;font face=&quot;Sarabun&quot;&gt;สิ้นสุด&lt;/font&gt;" style="ellipse;whiteSpace=wrap;html=1;" vertex="1" parent="1">
          <mxGeometry x="378.38" y="5580" width="130" height="30" as="geometry" />
        </mxCell>
        <mxCell id="7FRll6Lz1_2TQ6KTnF0Q-127" value="" style="endArrow=classic;html=1;rounded=0;" edge="1" parent="1">
          <mxGeometry width="50" height="50" relative="1" as="geometry">
            <mxPoint x="443.01" y="5530" as="sourcePoint" />
            <mxPoint x="443.51" y="5560" as="targetPoint" />
          </mxGeometry>
        </mxCell>
        <mxCell id="7FRll6Lz1_2TQ6KTnF0Q-128" value="&lt;font data-font-src=&quot;https://fonts.googleapis.com/css?family=Sarabun&quot; face=&quot;Sarabun&quot;&gt;เริ่มต้น&lt;/font&gt;" style="ellipse;whiteSpace=wrap;html=1;" vertex="1" parent="1">
          <mxGeometry x="378.38" y="4790" width="130" height="30" as="geometry" />
        </mxCell>
        <mxCell id="7FRll6Lz1_2TQ6KTnF0Q-129" value="" style="endArrow=classic;html=1;rounded=0;" edge="1" parent="1">
          <mxGeometry width="50" height="50" relative="1" as="geometry">
            <mxPoint x="442.88" y="4820" as="sourcePoint" />
            <mxPoint x="442.88" y="4870" as="targetPoint" />
          </mxGeometry>
        </mxCell>
        <mxCell id="7FRll6Lz1_2TQ6KTnF0Q-130" value="คำนวณเงินทอน" style="swimlane;" vertex="1" parent="1">
          <mxGeometry x="208.38" y="4750" width="470" height="930" as="geometry" />
        </mxCell>
        <mxCell id="7FRll6Lz1_2TQ6KTnF0Q-131" value="นาย ณัฐวัฒน์ มาสุข&lt;div&gt;68543210025-1&lt;/div&gt;" style="text;html=1;align=center;verticalAlign=middle;resizable=0;points=[];autosize=1;strokeColor=none;fillColor=none;" vertex="1" parent="1">
          <mxGeometry x="54" y="5753" width="120" height="40" as="geometry" />
        </mxCell>
      </root>
    </mxGraphModel>
  </diagram>
</mxfile>
